<?xml version="1.0" encoding="UTF-8"?>
<svg width="886px" height="237px" viewBox="0 0 886 237" version="1.1" xmlns="http://www.w3.org/2000/svg" xmlns:xlink="http://www.w3.org/1999/xlink">
    <!-- Generator: Sketch 46.2 (44496) - http://www.bohemiancoding.com/sketch -->
    <title>Fill 1</title>
    <desc>Created with Sketch.</desc>
    <defs></defs>
    <g id="Welcome" stroke="none" stroke-width="1" fill="none" fill-rule="evenodd">
        <g id="home" transform="translate(-1524.000000, -5802.000000)" fill="#F9D42C">
            <g id="Page-1" transform="translate(1524.324187, 5802.000000)">
                <path d="M40.4576101,18.3560238 C41.0289066,15.7271673 43.1266359,14.5845743 44.8360621,13.0626048 C42.3455665,12.2949252 39.2436051,12.1208583 37.1815818,10.938096 C38.8820815,14.8211268 38.0920856,14.9951937 40.4576101,17.2982326 C39.8550709,17.2937694 39.2123623,18.1507141 40.4576101,18.3560238 M485.493107,13.0626048 C478.012693,11.9557179 492.286179,12.3886535 487.680101,10.938096 C481.480642,10.4739176 474.535819,8.62166731 467.997152,12.0003504 C473.134357,12.3440209 482.359903,14.2944628 485.493107,13.0626048 M299.60305,211.039152 C303.736023,209.802831 309.868534,209.218145 311.640446,213.159198 C306.110474,213.917951 303.655685,211.704177 299.60305,211.039152 M440.664186,199.39006 C442.172766,196.979903 448.274033,198.99283 451.594694,198.336732 C450.077188,200.746889 443.984847,198.725035 440.664186,199.39006 M530.322028,198.336732 C484.546897,199.073169 447.403699,191.655241 396.924299,199.39006 C392.108448,196.346121 391.282746,199.238309 385.989327,197.274478 C433.518517,194.87771 487.907727,186.817074 530.322028,198.336732 M420.981237,187.745431 C407.801248,190.588523 381.883134,191.780212 366.306378,190.923267 C380.869975,191.726653 351.117925,191.030386 363.03035,189.861013 C382.81149,187.923961 400.762697,189.414688 420.981237,187.745431 M422.070271,185.634312 C422.280044,184.429233 423.172694,185.040699 423.168231,185.634312 C425.30613,184.45155 455.000157,183.795451 446.136135,185.634312 C442.922592,185.911034 442.061184,187.084869 440.664186,185.634312 C440.030404,188.285485 436.151836,186.375212 438.472728,187.745431 C433.505127,190.320728 427.970692,186.214535 424.261728,189.861013 C424.569693,187.96413 423.226253,187.691872 423.168231,188.803222 C419.294127,188.687177 425.489123,185.312958 422.070271,185.634312 M662.635185,183.514266 C662.595016,188.419382 647.437806,188.240852 647.321762,183.514266 C654.35585,183.737429 656.926684,181.479023 662.635185,183.514266 M696.529135,179.274175 C705.187847,178.658246 711.445329,180.372136 718.394615,181.398684 C718.260717,184.04093 716.310275,184.705955 719.497039,185.634312 C710.878495,191.548123 699.831942,185.147817 696.529135,179.274175 M67.7950394,145.402542 C62.0017361,148.727666 72.8117367,147.161064 76.5430168,147.513661 C68.6653739,151.302964 56.7618761,146.906659 50.3080112,146.460333 C54.8828463,145.286498 63.1532555,143.117356 67.7950394,145.402542 M42.6446045,88.2237983 C38.5518008,89.99571 41.3145548,89.8752022 40.4576101,91.401635 C51.6871566,93.6154088 64.1753406,93.9724691 80.9170055,94.5750084 C62.5596428,98.6945916 40.2032046,96.3692364 22.9661186,94.5750084 L22.9661186,88.2237983 C31.2856236,90.5179107 33.5886626,86.6527329 42.6446045,88.2237983 M355.371406,17.2982326 C355.549936,16.0485216 357.362017,16.4011186 358.656361,16.2404415 C339.491149,19.8824566 306.17296,16.4859204 291.94857,18.3560238 C292.756419,17.3651814 293.943645,16.7537157 295.233525,16.2404415 C292.644838,13.7990417 285.41883,15.8610649 281.018062,15.1737238 C316.425054,8.09500336 364.123847,14.5176255 404.574316,15.1737238 C402.690823,18.289075 393.340306,14.1784182 391.45235,17.2982326 C390.287441,21.7748762 365.391411,17.780264 355.371406,17.2982326 M-0.00178530151,54.3566287 C5.65762048,57.0613605 8.45608059,56.4811375 14.213678,54.3566287 C20.9933604,59.8553573 27.7418001,58.2753655 32.7986666,62.8234211 C27.8132122,67.0724387 24.046226,66.1797879 19.6856271,71.2902135 C22.0377618,68.4337311 16.6818573,69.3977939 20.7791242,67.0501224 C17.2888598,67.9561629 16.6282982,66.1351554 15.3116384,64.9345401 C13.72272,68.7193793 4.44361545,70.6117989 5.47016382,73.4013325 C8.93364874,74.7626249 24.1310278,68.5006799 26.2421469,75.521378 C24.0149832,74.624264 19.4490746,76.4497348 22.9661186,77.6458868 C25.2022087,75.8829016 34.9321019,75.8829016 37.1815818,77.6458868 C30.571503,80.5246855 24.0239097,77.4004079 18.5876666,81.8770514 C19.6097518,83.0062546 22.6179848,82.2028689 21.8681582,85.0504248 C13.2005193,89.6163334 29.0093642,99.9576924 26.2421469,108.34861 C24.2961682,108.977928 21.707481,105.246648 20.7791242,108.34861 C23.5820476,111.374696 26.6616927,116.404783 29.5271016,111.521983 C23.6222169,111.035488 29.4824691,106.715059 28.4291412,104.112982 C31.3838152,107.192627 39.0873912,99.2971309 41.5555705,105.170773 C34.8696164,106.866809 37.6189807,105.273428 31.7096327,106.224101 C32.6692323,110.20086 28.7549587,114.360612 28.4291412,115.757611 C28.7281792,113.262652 33.2762348,115.114902 32.7986666,116.810939 C26.8089801,117.797318 35.619443,116.775233 33.8966271,119.988775 C29.5449546,121.309898 26.1975143,116.253032 24.0551525,118.926521 C28.460384,121.528598 26.8714656,119.640642 29.5271016,123.175539 C27.1437241,124.251183 27.2240627,126.670266 24.0551525,126.348912 C27.1392609,130.428326 38.2661525,126.701509 42.6446045,129.517822 C30.500091,131.137983 20.3685049,129.593697 13.124644,122.104358 C16.0525385,135.119206 29.0673865,131.213859 37.1815818,132.691196 C30.0314493,133.869495 27.7507266,135.0835 28.4291412,142.220242 C32.928101,142.345213 32.0711563,137.27942 36.0836214,136.931287 C38.7214044,138.261336 43.4033576,137.605238 43.7425649,141.162451 C53.6911575,136.886654 65.3402499,138.332748 75.4495197,140.109123 C74.1596393,140.626861 72.9724138,141.233863 72.1690281,142.220242 C76.2707584,142.224706 88.5848755,141.282959 94.0389716,143.278034 C88.3617128,145.063335 74.5479424,142.666568 74.3604857,146.460333 C73.5928061,142.595156 64.4699154,142.202389 71.0710677,140.109123 C64.7511004,138.917435 62.8943868,142.064028 59.0515253,143.278034 C57.9714179,141.849792 56.1325573,141.162451 54.6730734,140.109123 C48.3888121,145.831015 38.8285225,138.975457 33.8966271,140.109123 C33.1869697,144.889268 34.6375272,144.907121 36.0836214,145.402542 C34.9142489,146.82632 28.3755822,148.410775 31.7096327,150.691498 C30.7500332,146.978071 34.5527254,149.589074 34.9945875,150.691498 C32.9548805,150.838785 31.3347194,151.387766 30.6161356,152.80708 C36.7084769,153.610466 44.0906987,153.173067 49.2100508,154.931589 C39.5024738,157.426548 28.6389141,153.074876 24.0551525,160.220545 C21.8369154,154.739669 19.8239879,161.452403 13.124644,157.042708 C13.3388802,161.42116 19.1857427,160.345516 18.5876666,165.509501 C21.8904744,165.469331 27.9604996,162.661945 30.6161356,165.509501 C28.7326425,165.464868 27.8132122,166.321813 27.3401073,167.634009 C35.936334,166.995764 41.3011651,169.236317 45.925096,169.749592 C45.4743073,172.132969 39.9264829,169.588914 40.4576101,172.922965 C42.4973171,173.93166 44.1174782,169.758518 44.8360621,172.922965 C45.6573008,176.899724 40.6539933,175.23493 40.4576101,178.216384 C44.4031264,178.644856 47.4247492,179.943663 48.1120903,183.514266 C46.4740762,183.688333 44.0817722,183.13489 43.7425649,184.567594 C51.7451789,183.87579 55.3380982,178.08695 61.2385197,178.216384 L55.7665705,178.216384 C57.6188209,174.279794 55.5300181,176.140971 53.5840394,173.980756 C64.0459063,174.409229 66.2998494,173.248783 82.0105027,175.038547 C89.2320473,183.380369 76.5965759,184.45155 65.6125084,187.745431 C69.9106217,186.817074 79.3905727,190.99468 74.3604857,186.692103 C81.1803375,187.392834 85.0142725,186.817074 90.7584801,189.861013 C86.0229678,190.874172 79.3057709,188.321191 77.636514,189.861013 C82.6353582,194.681327 92.182258,191.307107 98.4174236,193.043313 C83.1173896,198.162665 67.4558322,189.709262 53.5840394,189.861013 C54.7668017,190.115419 56.2039694,191.606145 54.6730734,191.981059 C48.5762687,190.963437 39.0516852,188.365823 33.8966271,189.861013 C34.5125561,193.860088 40.7387951,192.409531 42.6446045,195.158895 C32.892395,195.078557 26.7107885,191.53027 18.5876666,189.861013 C22.2252185,200.229152 47.2060498,203.65693 52.486079,199.39006 C55.2845391,201.621687 59.9843454,202.018916 63.425514,203.625688 C59.6228218,206.941885 57.6366739,200.358586 54.6730734,203.625688 C108.825731,211.552426 164.250417,212.141576 229.623695,214.216989 C239.759744,219.617526 250.663473,214.257158 261.339576,214.216989 C276.438763,214.158967 292.149417,215.395288 310.542485,214.216989 C308.837522,217.975049 314.251449,214.855234 313.82744,217.390362 C347.167946,212.632534 378.419649,215.033764 414.420254,212.101407 C394.232957,209.704639 351.42589,216.256696 333.501463,208.919107 C349.287991,205.593983 372.492448,211.583669 381.615338,204.687942 C382.106296,206.410758 375.661358,206.410758 376.147853,204.687942 C386.948927,203.581055 394.549848,203.049928 406.765773,204.687942 C411.059424,200.264858 421.467731,203.772975 429.724751,203.625688 C508.50118,202.228689 586.947328,200.385365 648.419722,197.274478 C651.423492,197.694023 663.103827,196.93527 654.980705,196.216686 C635.320072,195.457933 627.183561,196.667475 610.142858,194.096641 C637.475824,194.248392 665.299748,188.888024 696.529135,191.981059 C699.367764,191.561513 699.831942,188.825538 703.085654,188.803222 C725.366217,186.607301 745.848089,196.3729 765.414993,189.861013 C798.630528,192.86032 863.307538,209.508256 867.105767,166.571755 C878.455821,158.734281 872.617886,143.233401 872.577716,129.517822 C872.533084,117.261727 878.326387,104.099592 872.577716,93.5261437 C882.312073,81.1897103 879.000338,62.5377728 885.699682,48.0009553 C881.566709,43.1003027 876.813344,39.6145015 875.858208,34.2362807 C886.413803,23.653906 874.943241,11.5986576 866.01227,5.64467704 C866.855825,5.40812459 868.172485,5.61343427 868.203728,4.59134915 C865.101766,4.76541605 863.642282,6.52840129 860.549247,6.71139469 C831.770187,1.71701372 796.82291,-2.2195761 762.138965,1.41797572 C748.097569,2.88638621 731.413926,-0.563708951 710.744598,2.46684036 C699.778383,4.08700148 687.678502,6.42574645 675.752688,7.76472258 C673.869195,7.97895876 651.758236,8.56364501 665.911214,10.938096 C644.398331,9.19296379 624.02804,17.7177785 607.955864,6.71139469 C592.196115,10.8622207 571.084924,9.82228257 551.094011,9.88476812 C548.491934,3.66299237 531.254848,2.4534506 524.859005,6.71139469 C528.175202,7.367493 534.280934,5.35010229 535.789513,7.76472258 C530.438072,10.3489465 521.9445,9.88476812 513.91957,9.88476812 C513.446465,13.6562176 508.702026,13.3036205 506.269553,15.1737238 C484.37283,14.9193184 469.273642,16.2270517 449.4077,16.2404415 C448.952448,19.6191246 430.827174,17.1375555 422.070271,16.2404415 C430.657571,16.0797644 440.23125,16.8876133 441.75322,9.88476812 C429.854185,10.5676459 429.523904,9.37595719 416.607248,8.82697698 C414.326525,9.13494149 418.227409,11.6879226 414.420254,12.0003504 C396.107523,13.1027741 373.527923,12.134248 357.558401,7.76472258 C325.257833,12.6519855 282.165118,8.93855832 241.652164,10.938096 C245.173671,13.1786494 253.957354,10.3266302 255.867627,14.1248592 C239.161668,15.669145 231.908881,8.03251781 217.595226,16.2404415 C161.563538,13.4866139 106.504839,17.5258586 52.486079,12.0003504 C51.6737668,15.2629889 55.4853856,14.0355941 54.6730734,17.2982326 C53.1109345,17.5481748 52.8342128,19.0433649 51.3970451,19.4093517 C48.018362,19.1549462 45.2154386,18.3381708 42.6446045,17.2982326 C39.8416811,22.158716 39.9577257,24.2118127 33.8966271,24.7072339 C35.4944719,30.8085018 35.0481465,31.4512103 34.9945875,36.351863 C41.546644,34.6245838 43.5194022,38.5254676 48.1120903,42.6941466 C45.5367929,42.6852201 44.8896211,44.5285439 41.5555705,43.7653275 C41.8055128,40.2304305 34.0483777,34.7004591 30.6161356,40.5874908 C34.5750416,39.5832587 32.1425683,44.7606331 32.7986666,46.9431642 C31.7051695,46.9297744 31.4998598,47.8001089 30.6161356,48.0009553 C23.5061723,47.4698281 16.8737772,46.4879123 12.0266836,43.7653275 C9.08986263,47.3671733 6.03699705,45.4345844 3.28316947,45.8809098 C6.8046767,49.0185772 -0.0151750628,51.0850637 -0.00178530151,54.3566287 M299.60305,236.448456 C304.566189,235.600438 311.908241,237.059922 313.82744,233.275083 C310.30147,235.511173 301.517786,232.65469 299.60305,236.448456 M260.241615,235.390665 C264.642384,234.707787 271.868392,236.765347 274.457079,234.32841 C271.75681,233.02514 261.27709,231.717407 260.241615,235.390665 M113.717457,220.563736 C117.444274,219.189054 121.354085,222.924797 122.465435,220.563736 C119.662511,219.349731 115.542928,217.144883 113.717457,220.563736 M414.420254,207.865779 C410.376546,208.535267 403.525451,206.491097 401.298288,208.919107 C405.341995,208.249619 412.184164,210.293789 414.420254,207.865779 M32.7986666,23.6449795 C28.478237,23.600347 27.5409537,20.2796861 24.0551525,19.4093517 C23.5641946,24.4929977 30.888394,27.0816849 32.7986666,23.6449795 M390.363316,16.2404415 C387.038192,16.901003 380.94585,14.8836123 379.428344,17.2982326 C382.753468,16.6287446 388.850273,18.6505985 390.363316,16.2404415 M199.010237,9.88476812 C204.134052,10.5676459 212.105424,8.4966962 215.412695,10.938096 C214.113888,11.4558334 212.931126,12.0672992 212.12774,13.0626048 C214.399536,12.4377493 219.318042,14.3658749 219.78222,12.0003504 C218.496803,11.83521 216.684722,12.1878071 216.501729,10.938096 C219.117195,10.2998507 224.437394,12.2726089 225.254169,9.88476812 C218.12189,9.00550713 205.856868,7.51031712 199.010237,9.88476812 M158.550842,9.88476812 C157.720676,8.13070939 149.539532,8.13070939 148.704904,9.88476812 C151.954153,11.3353256 153.471659,9.26437585 158.550842,9.88476812 M404.574316,6.71139469 C401.990092,5.97495782 394.79979,4.26106837 392.55031,6.71139469 C395.844191,6.75156398 401.909753,9.5589506 404.574316,6.71139469 M623.264824,6.71139469 C628.201183,5.84106021 637.038425,8.74663841 638.578248,4.59134915 C633.637426,5.45275713 624.800183,2.54717893 623.264824,6.71139469 M281.018062,5.64467704 C285.409903,3.19881398 294.483698,5.28315349 300.696548,4.59134915 C294.840759,6.81404953 288.918021,7.13986705 281.018062,5.64467704" id="Fill-1"></path>
            </g>
        </g>
    </g>
</svg>