<?xml version="1.0" encoding="UTF-8"?>
<svg width="247px" height="72px" viewBox="0 0 247 72" version="1.1" xmlns="http://www.w3.org/2000/svg" xmlns:xlink="http://www.w3.org/1999/xlink">
    <!-- Generator: Sketch 46.2 (44496) - http://www.bohemiancoding.com/sketch -->
    <title>Fill 4</title>
    <desc>Created with Sketch.</desc>
    <defs></defs>
    <g id="Welcome" stroke="none" stroke-width="1" fill="none" fill-rule="evenodd" opacity="0.828294837">
        <g id="home" transform="translate(-1731.000000, -4592.000000)" fill="#4D4E4C">
            <g id="Group-7" transform="translate(1693.889705, 4567.667166)">
                <g id="mobile_store-(1)" transform="translate(0.263217, 0.101491)">
                    <g id="Group-6" transform="translate(0.547912, 0.378355)">
                        <path d="M277.368896,32.4821587 C275.387119,32.4821587 274.553662,34.2805747 274.424013,35.5844726 L280.000769,35.5844726 C280.026699,34.4102236 279.504399,32.4821587 277.368896,32.4821587 Z M152.702182,39.4406024 C152.702182,40.6907886 153.511561,41.2649482 154.524675,41.2649482 C155.830425,41.2649482 156.741672,40.4314907 157.054682,39.5183918 C157.132471,39.2850237 157.132471,39.0498035 157.132471,38.8145832 L157.132471,37.069879 C154.865467,37.0439492 152.702182,37.5125375 152.702182,39.4406024 Z M214.38359,32.6118077 C212.114733,32.6118077 211.203486,34.8269524 211.203486,36.9383779 C211.203486,39.3887428 212.427743,41.2390184 214.35766,41.2390184 C216.180154,41.2390184 217.458122,39.4665322 217.458122,36.8865183 C217.458122,34.9065938 216.570952,32.6118077 214.38359,32.6118077 Z M192.848901,32.4821587 C190.868977,32.4821587 190.033667,34.2805747 189.904018,35.5844726 L195.480775,35.5844726 C195.504852,34.4102236 194.984404,32.4821587 192.848901,32.4821587 Z M169.776947,32.7951683 C168.474901,32.7951683 167.274722,33.734197 166.937635,35.1399619 C166.882071,35.3751821 166.830212,35.6604098 166.830212,35.9752715 L166.830212,38.0329854 C166.830212,38.2941354 166.857993,38.5552854 166.909853,38.7905056 C167.248792,40.0906992 168.36933,41.0297279 169.749165,41.0297279 C171.756871,41.0297279 172.981128,39.4406024 172.981128,36.8624407 C172.981128,34.6195141 171.91245,32.7951683 169.776947,32.7951683 Z M282.941948,74.2402293 L266.513575,74.2402293 C266.5784,76.672073 267.372963,78.5242006 268.899116,79.805873 C270.280803,80.9578964 272.069958,81.5339081 274.270286,81.5339081 C276.707686,81.5339081 278.915422,81.1468134 280.912016,80.357807 L281.773255,84.1657815 C279.450687,85.1863039 276.689165,85.6826741 273.505357,85.6826741 C269.693678,85.6826741 266.693232,84.5658411 264.513277,82.3192103 C262.335175,80.0725794 261.236864,77.0554634 261.236864,73.2734187 C261.236864,69.5487899 262.255534,66.4631452 264.278057,63.9849984 C266.417265,61.3512728 269.289915,60.0362622 272.899712,60.0362622 C276.459501,60.0362622 279.143234,61.3512728 280.962023,63.9849984 C282.410387,66.0871633 283.141978,68.6745857 283.141978,71.7528219 C283.141978,72.7251889 283.071597,73.55309 282.941948,74.2402293 Z M260.344138,35.6604098 L260.344138,43.2708024 L257.141809,43.2708024 L257.141809,24.7698991 L260.344138,24.7698991 L260.344138,32.3006502 L260.39785,32.3006502 C260.786796,31.702413 261.335026,31.2060427 261.986975,30.8671034 C262.637072,30.5022342 263.394592,30.2929438 264.20212,30.2929438 C266.365405,30.2929438 268.634261,31.7264906 268.634261,35.7919109 L268.634261,43.2708024 L265.426376,43.2708024 L265.426376,36.1308502 C265.426376,34.3065045 264.748498,32.8988874 262.977864,32.8988874 C261.725825,32.8988874 260.840508,33.734197 260.477491,34.6973034 C260.37192,34.9843832 260.344138,35.3233226 260.344138,35.6604098 Z M259.514385,65.4074324 C258.975416,65.3092697 258.393848,65.2685229 257.790054,65.2685229 C255.863841,65.2685229 254.380287,65.9945569 253.33013,67.4429208 C252.415179,68.7320016 251.961408,70.3303878 251.961408,72.3047559 L251.961408,85.2326071 L246.486519,85.2326071 L246.486519,68.3430548 C246.486519,65.5185601 246.436511,62.9329899 246.340201,60.5919005 L251.103873,60.5919005 L251.307607,65.3092697 L251.457629,65.3092697 C252.029937,63.6923622 252.937479,62.3866122 254.195074,61.4142452 C255.411922,60.5252239 256.736193,60.0992345 258.154923,60.0992345 C258.65685,60.0992345 259.116177,60.1251643 259.514385,60.1899888 L259.514385,65.4074324 Z M245.46044,30.5800236 L247.258856,30.5800236 L247.258856,28.207448 L250.413029,27.322131 L250.413029,30.5800236 L253.459779,30.5800236 L253.459779,32.9766768 L250.413029,32.9766768 L250.413029,38.579363 C250.413029,40.1444109 250.829758,40.9260088 252.054015,40.9260088 C252.626322,40.9260088 252.939332,40.8982269 253.304201,40.7963599 L253.357912,43.2189429 C252.887472,43.4004514 252.028085,43.5578822 251.039049,43.5578822 C249.83887,43.5578822 248.873911,43.1670833 248.275674,42.5151343 C247.571866,41.785396 247.258856,40.6129992 247.258856,38.9460843 L247.258856,32.9766768 L245.46044,32.9766768 L245.46044,30.5800236 Z M239.80219,82.0469475 C237.531481,84.5417635 234.523626,85.7900975 230.780476,85.7900975 C227.157714,85.7900975 224.268395,84.5917709 222.123631,82.1914134 C219.98072,79.7966124 218.912042,76.7609751 218.912042,73.1159878 C218.912042,69.2987527 220.01591,66.170509 222.229203,63.7386654 C224.446199,61.2975611 227.420716,60.0973824 231.171275,60.0973824 C234.801445,60.0973824 237.705581,61.2845962 239.902205,63.6960665 C241.991405,66.0149303 243.039709,69.0320463 243.039709,72.712224 C243.039709,76.5090857 241.965475,79.6058432 239.80219,82.0469475 Z M214.252089,43.5578822 C210.683039,43.5578822 207.893734,41.1075173 207.893734,37.0180194 C207.893734,32.8470279 210.629327,30.2929438 214.461379,30.2929438 C218.239719,30.2929438 220.767874,32.9525991 220.767874,36.808729 C220.767874,41.4742386 217.484051,43.5578822 214.252089,43.5578822 Z M217.339585,64.6943633 L211.297945,64.6943633 L211.297945,76.672073 C211.297945,79.7095624 212.370327,81.2190464 214.500274,81.2190464 C215.480049,81.2190464 216.283873,81.1468134 216.932117,80.9801219 L217.087696,85.1270358 C216.004201,85.5326518 214.587324,85.7363858 212.829655,85.7363858 C210.677482,85.7363858 208.975377,85.0881411 207.762233,83.7601656 C206.534273,82.4488592 205.928627,80.2318624 205.928627,77.12214 L205.928627,64.6943633 L202.333647,64.6943633 L202.333647,60.5919005 L205.928627,60.5919005 L205.928627,56.0819696 L211.297945,54.4613579 L211.297945,60.5919005 L217.339585,60.5919005 L217.339585,64.6943633 Z M198.038563,82.7451996 C195.803045,84.7417933 192.704435,85.7326816 188.727917,85.7326816 C185.044035,85.7326816 182.0973,85.0214645 179.872895,83.6082911 L181.145306,79.0465006 C183.54196,80.4596741 186.175685,81.1745953 189.042779,81.1745953 C191.113458,81.1745953 192.715548,80.706007 193.865719,79.7817953 C195.008482,78.8557315 195.582642,77.6166581 195.582642,76.0423496 C195.582642,74.6754793 195.110349,73.5086389 194.169468,72.5566453 C193.21377,71.610208 191.654279,70.739708 189.455803,69.9210676 C183.478987,67.6966622 180.485949,64.4332133 180.485949,60.1436856 C180.485949,57.3377121 181.530549,55.0355174 183.645679,53.2426579 C185.758956,51.4572068 188.553817,50.5589248 192.039521,50.5589248 C195.147392,50.5589248 197.734814,51.1034504 199.799936,52.1776844 L198.418249,56.63946 C196.492036,55.5967121 194.302821,55.0670036 191.861717,55.0670036 C189.9318,55.0670036 188.41676,55.5559653 187.327709,56.480177 C186.418314,57.3377121 185.960838,58.3693473 185.960838,59.5824909 C185.960838,60.9252835 186.48499,62.0439686 187.531443,62.9366941 C188.446394,63.7423697 190.102196,64.618426 192.493293,65.5630112 C195.443732,66.7372601 197.599609,68.1300601 198.990557,69.724742 C200.372244,71.3120155 201.068644,73.2863836 201.068644,75.6478464 C201.068644,78.5556868 200.051826,80.9301145 198.038563,82.7451996 Z M170.480755,43.5578822 C168.837918,43.5578822 167.378441,42.9337152 166.467195,41.3686673 L166.413483,41.3686673 L166.257904,43.2708024 L163.522312,43.2708024 C163.574171,42.4114152 163.627883,41.0037982 163.627883,39.6999003 L163.627883,24.7698991 L166.830212,24.7698991 L166.830212,32.3247279 L166.882071,32.3247279 C167.663669,31.1004715 169.045356,30.2929438 170.949344,30.2929438 C174.049805,30.2929438 176.26495,32.8729577 176.23902,36.7290875 C176.23902,41.290878 173.347849,43.5578822 170.480755,43.5578822 Z M166.719084,82.5544305 C164.679891,84.708455 162.153589,85.7900975 159.12536,85.7900975 C155.863764,85.7900975 153.51897,84.6269613 152.096536,82.285872 L152.096536,95.2248359 L146.619794,95.2248359 L146.619794,68.6894027 C146.619794,66.053825 146.549414,63.3589792 146.417912,60.5919005 L151.22048,60.5919005 L151.537193,64.4961856 L151.631652,64.4961856 C153.468963,61.5661196 156.230485,60.0973824 159.947705,60.0973824 C162.855546,60.0973824 165.281833,61.2364409 167.224715,63.5404877 C169.173153,65.8334218 170.141816,68.8653548 170.141816,72.6122091 C170.141816,76.8165389 169.004609,80.1151783 166.719084,82.5544305 Z M142.145054,43.2708024 L145.349235,43.2708024 L145.349235,24.7698991 L142.145054,24.7698991 L142.145054,43.2708024 Z M139.650238,82.5544305 C137.616602,84.708455 135.077335,85.7900975 132.058367,85.7900975 C128.787509,85.7900975 126.44642,84.6269613 125.023986,82.285872 L125.023986,95.2248359 L119.5528,95.2248359 L119.5528,68.6894027 C119.5528,66.053825 119.48242,63.3589792 119.341658,60.5919005 L124.159042,60.5919005 L124.460939,64.4961856 L124.557249,64.4961856 C126.390856,61.5661196 129.157935,60.0973824 132.880711,60.0973824 C135.7867,60.0973824 138.205578,61.2364409 140.161425,63.5404877 C142.096899,65.8334218 143.07297,68.8653548 143.07297,72.6122091 C143.07297,76.8165389 141.935763,80.1151783 139.650238,82.5544305 Z M118.213712,39.7795418 C118.213712,36.5994385 121.053024,34.9584534 125.744463,34.9843832 L125.744463,34.7750928 C125.744463,33.9416353 125.405524,32.5599481 123.164449,32.5599481 C121.912411,32.5599481 120.612218,32.9525991 119.750978,33.4989768 L119.124959,31.413481 C120.062136,30.8411736 121.704973,30.2929438 123.712679,30.2929438 C127.776247,30.2929438 128.950496,32.8729577 128.950496,35.6604098 L128.950496,40.2222003 C128.950496,41.3686673 129.000504,42.4892046 129.157935,43.2708024 L126.264911,43.2708024 L126.031543,41.8650375 L125.953754,41.8650375 C125.196234,42.8540737 123.868258,43.5578822 122.199491,43.5578822 C119.645407,43.5578822 118.213712,41.7076067 118.213712,39.7795418 Z M111.614581,43.2708024 L108.460408,43.2708024 L103.743039,30.5800236 L107.212074,30.5800236 L109.267935,37.0180194 C109.632805,38.1385566 109.893955,39.1535226 110.129175,40.1962705 L110.208816,40.1962705 C110.442184,39.1535226 110.729264,38.1626343 111.068204,37.0180194 L113.099988,30.5800236 L116.463452,30.5800236 L111.614581,43.2708024 Z M110.371804,85.2326071 L107.180588,75.2033357 L96.07523,75.2033357 L93.02848,85.2326071 L87.3572651,85.2326071 L98.3477907,51.0645557 L105.148804,51.0645557 L116.206006,85.2326071 L110.371804,85.2326071 Z M71.6827085,83.9490826 C71.6827085,87.0421358 69.1601106,89.5517688 66.0670574,89.5517688 L41.9986583,89.5517688 C38.9019008,89.5517688 36.3774508,87.0421358 36.3774508,83.9490826 L36.3774508,30.4633395 C36.3774508,27.3702863 38.9019008,24.8532448 41.9986583,24.8532448 L66.0670574,24.8532448 C69.1601106,24.8532448 71.6827085,27.3702863 71.6827085,30.4633395 L71.6827085,83.9490826 Z M93.0266279,25.7070757 L97.1179779,25.7070757 L102.824383,43.2708024 L99.3590524,43.2708024 L97.771779,38.2941354 L92.2191002,38.2941354 L90.7059119,43.2708024 L87.3961597,43.2708024 L93.0266279,25.7070757 Z M133.908642,43.2708024 L137.110971,43.2708024 L137.110971,30.5800236 L133.908642,30.5800236 L133.908642,43.2708024 Z M135.523697,25.2903469 C136.616453,25.2903469 137.296184,26.046015 137.320261,27.0350512 C137.320261,27.97408 136.616453,28.7556778 135.495916,28.7556778 C134.427238,28.7556778 133.725281,27.97408 133.725281,27.0350512 C133.725281,26.046015 134.45502,25.2903469 135.523697,25.2903469 Z M154.474668,32.5599481 C153.22263,32.5599481 151.920584,32.9525991 151.061197,33.4989768 L150.435177,31.413481 C151.372354,30.8411736 153.015191,30.2929438 155.021045,30.2929438 C159.086466,30.2929438 160.260715,32.8729577 160.260715,35.6604098 L160.260715,40.2222003 C160.260715,41.3686673 160.310722,42.4892046 160.466301,43.2708024 L157.57513,43.2708024 L157.341761,41.8650375 L157.263972,41.8650375 C156.508304,42.8540737 155.178476,43.5578822 153.511561,43.5578822 C150.955625,43.5578822 149.522078,41.7076067 149.522078,39.7795418 C149.522078,36.5994385 152.36139,34.9584534 157.054682,34.9843832 L157.054682,34.7750928 C157.054682,33.9416353 156.71389,32.5599481 154.474668,32.5599481 Z M179.89512,43.2708024 L183.097449,43.2708024 L183.097449,24.7698991 L179.89512,24.7698991 L179.89512,43.2708024 Z M193.03041,30.2929438 C197.14769,30.2929438 198.505299,33.6804853 198.505299,36.4697896 C198.505299,37.069879 198.451587,37.5384673 198.399728,37.8255471 L189.904018,37.8255471 C189.981808,40.116629 191.754294,41.1075173 193.812008,41.1075173 C195.297414,41.1075173 196.340162,40.8741492 197.33105,40.5352099 L197.799638,42.7244248 C196.705031,43.1930131 195.193695,43.5319524 193.369349,43.5319524 C189.252069,43.5319524 186.829486,41.0037982 186.829486,37.1217385 C186.829486,33.602696 188.964989,30.2929438 193.03041,30.2929438 Z M226.689126,30.5800236 L226.844705,32.4821587 L226.924346,32.4821587 C227.496654,31.4912704 228.878341,30.2929438 230.989766,30.2929438 C233.204911,30.2929438 235.497845,31.7264906 235.497845,35.7400513 L235.497845,43.2708024 L232.293664,43.2708024 L232.293664,36.1030683 C232.293664,34.2805747 231.613933,32.8988874 229.869229,32.8988874 C228.593113,32.8988874 227.705944,33.8119864 227.365153,34.7750928 C227.261433,35.0362428 227.209574,35.4270417 227.209574,35.7919109 L227.209574,43.2708024 L224.005393,43.2708024 L224.005393,34.3602162 C224.005393,32.8988874 223.953533,31.6746311 223.899822,30.5800236 L226.689126,30.5800236 Z M277.550404,30.2929438 C281.667684,30.2929438 283.023441,33.6804853 283.023441,36.4697896 C283.023441,37.069879 282.971582,37.5384673 282.919722,37.8255471 L274.424013,37.8255471 C274.501802,40.116629 276.274288,41.1075173 278.332002,41.1075173 C279.817408,41.1075173 280.860156,40.8741492 281.849192,40.5352099 L282.317781,42.7244248 C281.225025,43.1930131 279.713689,43.5319524 277.889343,43.5319524 C273.772064,43.5319524 271.349481,41.0037982 271.349481,37.1217385 C271.349481,33.602696 273.484984,30.2929438 277.550404,30.2929438 Z M95.8696439,31.5449821 C95.5288524,30.4744523 95.2436247,29.2761257 94.9824747,28.2611597 L94.928763,28.2611597 C94.6694651,29.2761257 94.3823853,30.5022342 94.0953056,31.5449821 L92.7414002,35.8715524 L97.249479,35.8715524 L95.8696439,31.5449821 Z M125.744463,39.5183918 C125.820401,39.2850237 125.820401,39.0498035 125.820401,38.8145832 L125.820401,37.069879 C123.555248,37.0439492 121.393815,37.5125375 121.393815,39.4406024 C121.393815,40.6907886 122.199491,41.2649482 123.216309,41.2649482 C124.518355,41.2649482 125.429602,40.4314907 125.744463,39.5183918 Z M272.495948,63.8331239 C270.708644,63.8331239 269.256576,64.5962005 268.136039,66.0741984 C267.224792,67.2540037 266.678415,68.6745857 266.513575,70.3229793 L277.918978,70.3229793 C277.948612,68.7060718 277.602264,67.3095676 276.85956,66.1205016 C275.909419,64.6054612 274.451795,63.8331239 272.495948,63.8331239 Z M101.598275,55.6281983 L101.503816,55.6281983 C101.159321,57.0802664 100.625908,59.2231781 99.875796,62.0661941 L97.0346322,70.9897453 L106.210073,70.9897453 L103.331866,62.0661941 C103.020709,61.1493909 102.439141,59.0027749 101.598275,55.6281983 Z M158.175219,64.4406218 C156.819461,64.4406218 155.606318,64.8869846 154.504302,65.7815622 C153.40599,66.6891048 152.68366,67.8633537 152.344721,69.317274 C152.176177,69.9970048 152.096536,70.550791 152.096536,70.9915974 L152.096536,75.0940602 C152.096536,76.8887719 152.637357,78.4038123 153.741225,79.6373294 C154.835833,80.8615858 156.267527,81.4801964 158.015936,81.4801964 C160.088467,81.4801964 161.692409,80.6930422 162.842581,79.0983602 C163.994604,77.5110868 164.570616,75.4163304 164.570616,72.8066825 C164.570616,70.4137335 164.02609,68.4338091 162.948152,66.8835782 C161.757234,65.2685229 160.166256,64.4406218 158.175219,64.4406218 Z M230.971245,64.1016824 C228.780178,64.1016824 227.105855,65.0740495 225.963092,67.0317484 C224.972204,68.6430995 224.486946,70.608207 224.486946,72.9363314 C224.486946,75.2033357 224.972204,77.136957 225.963092,78.7520123 C227.133637,80.706007 228.791291,81.6783741 230.930498,81.6783741 C233.01229,81.6783741 234.658831,80.6930422 235.834932,78.6908921 C236.855455,77.0554634 237.36479,75.0940602 237.36479,72.8400208 C237.36479,70.5878335 236.875828,68.6430995 235.901609,67.0317484 C234.736621,65.0740495 233.103044,64.1016824 230.971245,64.1016824 Z M131.098964,64.4406218 C129.748763,64.4406218 128.530063,64.8869846 127.429899,65.7815622 C126.327884,66.6891048 125.612962,67.8633537 125.272171,69.317274 C125.107331,69.9970048 125.023986,70.550791 125.023986,70.9915974 L125.023986,75.0940602 C125.023986,76.8887719 125.562955,78.4038123 126.666823,79.6373294 C127.763282,80.8615858 129.194977,81.4801964 130.948942,81.4801964 C133.004804,81.4801964 134.621711,80.6930422 135.768178,79.0983602 C136.91835,77.5110868 137.486953,75.4163304 137.486953,72.8066825 C137.486953,70.4137335 136.95354,68.4338091 135.870045,66.8835782 C134.682831,65.2685229 133.095558,64.4406218 131.098964,64.4406218 Z M39.7909221,78.2723113 L68.2692372,78.2723113 L68.2692372,36.1530758 L39.7909221,36.1530758 L39.7909221,78.2723113 Z M54.0282275,80.7597188 C52.4298413,80.7597188 51.1277956,82.0654688 51.1277956,83.6675592 C51.1277956,85.2659454 52.4298413,86.5698433 54.0282275,86.5698433 C55.6321701,86.5698433 56.9305116,85.2659454 56.9305116,83.6675592 C56.9305116,82.0654688 55.6321701,80.7597188 54.0282275,80.7597188 Z M51.2389232,31.8579917 L56.8193839,31.8579917 C57.1842531,31.8579917 57.4824456,31.5560949 57.4824456,31.2060427 C57.4824456,30.8374693 57.1842531,30.5392768 56.8193839,30.5392768 L51.2389232,30.5392768 C50.8833147,30.5392768 50.5795658,30.8374693 50.5795658,31.2060427 C50.5795658,31.5560949 50.8833147,31.8579917 51.2389232,31.8579917 L51.2389232,31.8579917 Z" id="Fill-4"></path>
                    </g>
                </g>
            </g>
        </g>
    </g>
</svg>