<?xml version="1.0" encoding="UTF-8"?>
<svg width="283px" height="68px" viewBox="0 0 283 68" version="1.1" xmlns="http://www.w3.org/2000/svg" xmlns:xlink="http://www.w3.org/1999/xlink">
    <!-- Generator: Sketch 46.2 (44496) - http://www.bohemiancoding.com/sketch -->
    <title>Group 14</title>
    <desc>Created with Sketch.</desc>
    <defs></defs>
    <g id="Welcome" stroke="none" stroke-width="1" fill="none" fill-rule="evenodd" opacity="0.828294837">
        <g id="home" transform="translate(-2136.000000, -4596.000000)">
            <g id="Group-7" transform="translate(1693.889705, 4567.667166)">
                <g id="mobile_store-(1)" transform="translate(0.263217, 0.101491)">
                    <g id="Group-14" transform="translate(442.000000, 28.000000)">
                        <path d="M79.499898,5.56914252 C78.7516384,3.30769462 78.3756565,2.08714249 78.3756565,1.90192972 L78.2719373,1.90192972 C78.2719373,2.07232546 77.8829905,3.29472973 77.1088011,5.56914252 L79.499898,5.56914252 Z M82.5355352,9.28080638 L80.4333703,9.28080638 C80.4333703,8.99187447 80.2333405,8.17323403 79.8351331,6.82303296 L76.7994958,6.82303296 C76.3883235,8.1510085 76.1827373,8.96964893 76.1827373,9.28080638 L74.2046649,9.28080638 C74.2046649,9.11041064 74.7158522,7.70834999 75.7382267,5.07647656 C76.7606011,2.442751 77.2717884,0.994387156 77.2717884,0.725828643 L79.7554916,0.725828643 C79.7554916,0.975865879 80.2185235,2.40570845 81.1464395,5.01350422 C82.0725033,7.62129998 82.5355352,9.04373404 82.5355352,9.28080638 L82.5355352,9.28080638 Z" id="Fill-25" fill="#515151"></path>
                        <path d="M91.0071672,9.28080638 L89.3847034,9.28080638 C89.3847034,9.10115 88.7827619,8.15286063 87.5770268,6.43593827 C86.3157278,4.62640953 85.5971023,3.38918824 85.4230023,2.72427441 L85.317431,2.72427441 C85.4267065,3.68367654 85.4822704,4.5504723 85.4822704,5.32466167 C85.4822704,6.40815636 85.5119044,7.72687126 85.5730246,9.28080638 L83.9579693,9.28080638 C84.0227938,7.9231968 84.0561321,6.43223402 84.0561321,4.80606592 C84.0561321,3.20767973 84.0227938,1.84821802 83.9579693,0.725828643 L85.9082597,0.725828643 C85.9082597,0.95919673 86.449081,1.88526057 87.5325757,3.50587229 C88.6845991,5.2264989 89.3458087,6.39519146 89.5162045,7.00824572 L89.6143672,7.00824572 C89.5087959,6.03032231 89.4569364,5.15426592 89.4569364,4.38007655 C89.4569364,3.19286271 89.4254502,1.9741627 89.36433,0.725828643 L91.0071672,0.725828643 C90.946047,1.81302759 90.916413,3.1724893 90.916413,4.80606592 C90.916413,6.45445955 90.946047,7.94542233 91.0071672,9.28080638" id="Fill-26" fill="#515151"></path>
                        <path d="M98.736096,4.99127868 C98.736096,4.14856059 98.4916152,3.44104782 98.0008013,2.86503611 C97.5099875,2.2890244 96.7617279,2.00009248 95.7541705,2.00009248 C95.5652534,2.00009248 95.3078077,2.02046589 94.978129,2.05936057 C95.02258,2.93541696 95.0448056,3.85222016 95.0448056,4.80606592 C95.0448056,5.85437018 95.0670311,6.89156168 95.10963,7.92134467 C95.3948577,7.97876063 95.6800854,8.00654254 95.9634609,8.00654254 C96.9061939,8.00654254 97.604446,7.71390637 98.0563652,7.12863402 C98.5101365,6.5452138 98.736096,5.83214465 98.736096,4.99127868 Z M100.530808,4.70790315 C100.530808,5.95253295 100.1326,7.03787977 99.3343333,7.96764786 C98.5379184,8.89556383 97.4210854,9.36044787 95.9838343,9.36044787 C95.3355896,9.36044787 94.4428641,9.33266596 93.3038055,9.28080638 C93.3593694,7.95838722 93.3890034,6.46742444 93.3890034,4.80606592 C93.3890034,3.21138399 93.3593694,1.85192227 93.3038055,0.725828643 L94.4521247,0.725828643 C94.6410417,0.725828643 94.920713,0.72027226 95.2948428,0.707307366 C95.6652683,0.694342472 95.9097492,0.686933962 96.022729,0.686933962 C97.604446,0.686933962 98.750913,1.08143716 99.4621301,1.87044355 C100.175199,2.65759781 100.530808,3.60403505 100.530808,4.70790315 L100.530808,4.70790315 Z" id="Fill-27" fill="#515151"></path>
                        <path d="M106.848415,3.23546165 C106.848415,2.36496164 106.287221,1.92785951 105.164831,1.92785951 C104.753659,1.92785951 104.390642,1.95934568 104.07578,2.02046589 C104.123935,2.70019675 104.148013,3.58366165 104.148013,4.67456485 C104.38879,4.68382549 104.592524,4.68752974 104.759215,4.68752974 C106.152015,4.68752974 106.848415,4.20412442 106.848415,3.23546165 Z M109.311745,9.28080638 L107.367011,9.28080638 C106.857676,7.73057552 106.468729,6.77302551 106.196466,6.41000848 C105.926056,6.04699146 105.487101,5.86363082 104.883308,5.86363082 C104.629566,5.86363082 104.385085,5.86733507 104.153569,5.87103933 C104.153569,6.99713296 104.173943,8.13433935 104.212838,9.28080638 L102.38664,9.28080638 C102.444056,7.95838722 102.471838,6.46742444 102.471838,4.80606592 C102.471838,3.21138399 102.444056,1.85192227 102.38664,0.725828643 L103.523846,0.725828643 C103.655347,0.725828643 103.929462,0.72027226 104.348043,0.707307366 C104.766624,0.694342472 105.151866,0.686933962 105.507475,0.686933962 C107.517033,0.686933962 108.522739,1.37407333 108.522739,2.75020419 C108.522739,3.8411074 107.948579,4.60047974 106.802112,5.03017336 L106.802112,5.12833613 C107.244771,5.25057656 107.631865,5.59692443 107.965248,6.1636755 C108.296779,6.73042657 108.746846,7.7694702 109.311745,9.28080638 L109.311745,9.28080638 Z" id="Fill-28" fill="#515151"></path>
                        <path d="M116.916581,5.03572975 C116.916581,4.12077868 116.681361,3.37807548 116.212773,2.80947228 C115.744184,2.23901696 115.166321,1.95564142 114.479181,1.95564142 C113.838345,1.95564142 113.295672,2.24272121 112.849309,2.81502866 C112.402946,3.38918824 112.178839,4.11522229 112.178839,4.99127868 C112.178839,5.9025255 112.414059,6.64337657 112.886351,7.2138319 C113.356792,7.78613935 113.932804,8.07136701 114.616239,8.07136701 C115.257075,8.07136701 115.799748,7.78428722 116.246111,7.20827551 C116.692474,6.63226381 116.916581,5.90808188 116.916581,5.03572975 Z M118.729814,4.84681272 C118.729814,6.19145742 118.318642,7.30643828 117.494445,8.18990318 C116.670248,9.07522021 115.65343,9.51787873 114.440287,9.51787873 C113.282707,9.51787873 112.314044,9.11041064 111.53615,8.29917871 C110.756405,7.48609466 110.365606,6.45445955 110.365606,5.20056911 C110.365606,3.85592442 110.776778,2.74094356 111.600975,1.85562653 C112.425172,0.972161624 113.44199,0.529503109 114.656986,0.529503109 C115.812713,0.529503109 116.781376,0.93511907 117.561122,1.74449887 C118.339015,2.55573079 118.729814,3.58921803 118.729814,4.84681272 L118.729814,4.84681272 Z" id="Fill-29" fill="#515151"></path>
                        <path d="M122.445182,9.28080638 L120.585646,9.28080638 C120.643062,7.9231968 120.670844,6.43223402 120.670844,4.80606592 C120.670844,3.20767973 120.643062,1.84821802 120.585646,0.725828643 L122.445182,0.725828643 C122.387766,1.82969674 122.359985,3.19101058 122.359985,4.80606592 C122.359985,6.4581638 122.387766,7.94912658 122.445182,9.28080638" id="Fill-30" fill="#515151"></path>
                        <path d="M130.174111,4.99127868 C130.174111,4.14856059 129.92963,3.44104782 129.438817,2.86503611 C128.948003,2.2890244 128.199743,2.00009248 127.192186,2.00009248 C127.003269,2.00009248 126.743971,2.02046589 126.416144,2.05936057 C126.460595,2.93541696 126.482821,3.85222016 126.482821,4.80606592 C126.482821,5.85437018 126.503194,6.89156168 126.547645,7.92134467 C126.832873,7.97876063 127.116248,8.00654254 127.401476,8.00654254 C128.344209,8.00654254 129.040609,7.71390637 129.49438,7.12863402 C129.948152,6.5452138 130.174111,5.83214465 130.174111,4.99127868 Z M131.968823,4.70790315 C131.968823,5.95253295 131.568763,7.03787977 130.772348,7.96764786 C129.975934,8.89556383 128.857248,9.36044787 127.421849,9.36044787 C126.773605,9.36044787 125.879027,9.33266596 124.739969,9.28080638 C124.797385,7.95838722 124.827019,6.46742444 124.827019,4.80606592 C124.827019,3.21138399 124.797385,1.85192227 124.739969,0.725828643 L125.89014,0.725828643 C126.079057,0.725828643 126.358728,0.72027226 126.731006,0.707307366 C127.103284,0.694342472 127.347764,0.686933962 127.460744,0.686933962 C129.042461,0.686933962 130.188928,1.08143716 130.900145,1.87044355 C131.611362,2.65759781 131.968823,3.60403505 131.968823,4.70790315 L131.968823,4.70790315 Z" id="Fill-31" fill="#515151"></path>
                        <path d="M141.566549,5.56914252 C140.818289,3.30769462 140.442307,2.08714249 140.442307,1.90192972 L140.336736,1.90192972 C140.336736,2.07232546 139.949641,3.29472973 139.175452,5.56914252 L141.566549,5.56914252 Z M144.602186,9.28080638 L142.500021,9.28080638 C142.500021,8.99187447 142.299991,8.17323403 141.901784,6.82303296 L138.866146,6.82303296 C138.454974,8.1510085 138.247536,8.96964893 138.247536,9.28080638 L136.271316,9.28080638 C136.271316,9.11041064 136.782503,7.70834999 137.804877,5.07647656 C138.827252,2.442751 139.338439,0.994387156 139.338439,0.725828643 L141.822142,0.725828643 C141.822142,0.975865879 142.285174,2.40570845 143.21309,5.01350422 C144.139154,7.62129998 144.602186,9.04373404 144.602186,9.28080638 L144.602186,9.28080638 Z" id="Fill-32" fill="#515151"></path>
                        <path d="M150.571593,3.32806803 C150.571593,2.39089142 149.949278,1.92230312 148.704649,1.92230312 C148.393491,1.92230312 148.065665,1.95564142 147.719317,2.02046589 C147.767472,2.84836696 147.79155,3.78554357 147.79155,4.8319957 C147.900825,4.84125634 148.028622,4.84681272 148.173088,4.84681272 C149.771474,4.84681272 150.571593,4.33932974 150.571593,3.32806803 Z M152.26629,2.96690313 C152.26629,4.01335527 151.877343,4.78754464 151.09945,5.28576698 C150.323408,5.78584146 149.369562,6.03587869 148.237912,6.03587869 C148.032326,6.03587869 147.886008,6.03032231 147.798958,6.0229138 C147.798958,6.84525849 147.823036,7.93245743 147.871191,9.28080638 L146.02462,9.28080638 C146.080184,8.01580318 146.109818,6.52298827 146.109818,4.80606592 C146.109818,3.22990526 146.080184,1.87044355 146.02462,0.725828643 L147.167383,0.725828643 C147.328518,0.725828643 147.641527,0.72027226 148.100855,0.707307366 C148.560183,0.694342472 148.95839,0.686933962 149.295477,0.686933962 C150.128935,0.686933962 150.830891,0.875850985 151.405051,1.2518329 C151.97921,1.62966695 152.26629,2.20012227 152.26629,2.96690313 L152.26629,2.96690313 Z" id="Fill-33" fill="#515151"></path>
                        <path d="M158.450544,3.32806803 C158.450544,2.39089142 157.830082,1.92230312 156.585452,1.92230312 C156.274294,1.92230312 155.944616,1.95564142 155.60012,2.02046589 C155.648275,2.84836696 155.672353,3.78554357 155.672353,4.8319957 C155.781628,4.84125634 155.909425,4.84681272 156.053891,4.84681272 C157.652277,4.84681272 158.450544,4.33932974 158.450544,3.32806803 Z M160.147093,2.96690313 C160.147093,4.01335527 159.758147,4.78754464 158.980253,5.28576698 C158.202359,5.78584146 157.248514,6.03587869 156.118716,6.03587869 C155.91313,6.03587869 155.766811,6.03032231 155.677909,6.0229138 C155.677909,6.84525849 155.701987,7.93245743 155.750142,9.28080638 L153.905423,9.28080638 C153.960987,8.01580318 153.990621,6.52298827 153.990621,4.80606592 C153.990621,3.22990526 153.960987,1.87044355 153.905423,0.725828643 L155.048186,0.725828643 C155.209321,0.725828643 155.520478,0.72027226 155.981658,0.707307366 C156.440986,0.694342472 156.839193,0.686933962 157.176281,0.686933962 C158.007886,0.686933962 158.711694,0.875850985 159.285854,1.2518329 C159.860014,1.62966695 160.147093,2.20012227 160.147093,2.96690313 L160.147093,2.96690313 Z" id="Fill-34" fill="#515151"></path>
                        <path d="M171.217261,5.03572975 C171.217261,4.12077868 170.98204,3.37807548 170.513452,2.80947228 C170.044864,2.23901696 169.467,1.95564142 168.779861,1.95564142 C168.139024,1.95564142 167.596351,2.24272121 167.149988,2.81502866 C166.703625,3.38918824 166.479518,4.11522229 166.479518,4.99127868 C166.479518,5.9025255 166.714738,6.64337657 167.187031,7.2138319 C167.657471,7.78613935 168.233483,8.07136701 168.916918,8.07136701 C169.557754,8.07136701 170.100428,7.78428722 170.54679,7.20827551 C170.993153,6.63226381 171.217261,5.90808188 171.217261,5.03572975 Z M173.030494,4.84681272 C173.030494,6.19145742 172.619321,7.30643828 171.795124,8.18990318 C170.970928,9.07522021 169.952257,9.51787873 168.739114,9.51787873 C167.583386,9.51787873 166.614723,9.11041064 165.834978,8.29917871 C165.057084,7.48609466 164.666285,6.45445955 164.666285,5.20056911 C164.666285,3.85592442 165.077457,2.74094356 165.901654,1.85562653 C166.725851,0.972161624 167.742669,0.529503109 168.955813,0.529503109 C170.113392,0.529503109 171.082055,0.93511907 171.859949,1.74449887 C172.639695,2.55573079 173.030494,3.58921803 173.030494,4.84681272 L173.030494,4.84681272 Z" id="Fill-35" fill="#515151"></path>
                        <path d="M181.935523,9.28080638 L180.31306,9.28080638 C180.31306,9.10115 179.711118,8.15286063 178.507235,6.43593827 C177.244084,4.62640953 176.525458,3.38918824 176.351358,2.72427441 L176.245787,2.72427441 C176.355063,3.68367654 176.410627,4.5504723 176.410627,5.32466167 C176.410627,6.40815636 176.440261,7.72687126 176.503233,9.28080638 L174.886325,9.28080638 C174.95115,7.9231968 174.984488,6.43223402 174.984488,4.80606592 C174.984488,3.20767973 174.95115,1.84821802 174.886325,0.725828643 L176.836616,0.725828643 C176.836616,0.95919673 177.379289,1.88526057 178.460932,3.50587229 C179.612955,5.2264989 180.274165,6.39519146 180.444561,7.00824572 L180.542723,7.00824572 C180.437152,6.03032231 180.385293,5.15426592 180.385293,4.38007655 C180.385293,3.19286271 180.355659,1.9741627 180.292686,0.725828643 L181.935523,0.725828643 C181.874403,1.81302759 181.844769,3.1724893 181.844769,4.80606592 C181.844769,6.45445955 181.874403,7.94542233 181.935523,9.28080638" id="Fill-36" fill="#515151"></path>
                        <path d="M104.425832,36.6885917 C104.425832,40.9336684 103.166385,44.3175057 100.647492,46.8363993 C97.7878067,49.8368461 94.06503,51.3370695 89.4791619,51.3370695 C85.0914714,51.3370695 81.3631384,49.8164727 78.2923107,46.773427 C75.2196309,43.7303812 73.6860692,39.9575971 73.6860692,35.4569268 C73.6860692,30.9581087 75.2196309,27.1853246 78.2923107,24.1422789 C81.3631384,21.0992331 85.0914714,19.5786363 89.4791619,19.5786363 C91.6591162,19.5786363 93.7390556,20.0009214 95.7226843,20.851048 C97.7026088,21.6993225 99.2880301,22.8346767 100.477096,24.2478501 L97.8026237,26.9241746 C95.7930651,24.5182608 93.0185779,23.3143778 89.4791619,23.3143778 C86.2805374,23.3143778 83.5153108,24.4386193 81.1797778,26.6908065 C78.8442448,28.9411417 77.6755522,31.8637992 77.6755522,35.4569268 C77.6755522,39.0537588 78.8442448,41.9745641 81.1797778,44.2267514 C83.5153108,46.4752344 86.2805374,47.601328 89.4791619,47.601328 C92.8759641,47.601328 95.7078673,46.469678 97.9711673,44.2045259 C99.4436088,42.7320844 100.291883,40.6799269 100.517843,38.0480535 L89.4791619,38.0480535 L89.4791619,34.3956577 L104.212838,34.3956577 C104.355451,35.1902205 104.425832,35.9532971 104.425832,36.6885917" id="Fill-37" fill="#515151"></path>
                        <path d="M111.96214,45.7103057 C113.306784,47.0845844 114.897762,47.7717238 116.738777,47.7717238 C118.57794,47.7717238 120.17077,47.0845844 121.515414,45.7103057 C122.860059,44.3378791 123.532381,42.5209418 123.532381,40.2557897 C123.532381,37.9906375 122.860059,36.1737003 121.515414,34.7994215 C120.17077,33.4269949 118.57794,32.7398555 116.738777,32.7398555 C114.897762,32.7398555 113.306784,33.4269949 111.96214,34.7994215 C110.617495,36.1737003 109.945173,37.9906375 109.945173,40.2557897 C109.945173,42.5209418 110.617495,44.3378791 111.96214,45.7103057 Z M109.054299,32.3379438 C111.063858,30.2283704 113.62535,29.1745098 116.738777,29.1745098 C119.852204,29.1745098 122.413696,30.2283704 124.425107,32.3379438 C126.434665,34.4456651 127.438519,37.0849471 127.438519,40.2557897 C127.438519,43.4266322 126.434665,46.0659142 124.425107,48.1736355 C122.413696,50.2832089 119.852204,51.3370695 116.738777,51.3370695 C113.62535,51.3370695 111.063858,50.2832089 109.054299,48.1736355 C107.044741,46.0659142 106.039035,43.4266322 106.039035,40.2557897 C106.039035,37.0849471 107.044741,34.4456651 109.054299,32.3379438 L109.054299,32.3379438 Z" id="Fill-38" fill="#515151"></path>
                        <path d="M134.678486,45.7103057 C136.021278,47.0845844 137.614108,47.7717238 139.455123,47.7717238 C141.294286,47.7717238 142.885263,47.0845844 144.23176,45.7103057 C145.576405,44.3378791 146.248727,42.5209418 146.248727,40.2557897 C146.248727,37.9906375 145.576405,36.1737003 144.23176,34.7994215 C142.885263,33.4269949 141.294286,32.7398555 139.455123,32.7398555 C137.614108,32.7398555 136.021278,33.4269949 134.678486,34.7994215 C133.331989,36.1737003 132.661519,37.9906375 132.661519,40.2557897 C132.661519,42.5209418 133.331989,44.3378791 134.678486,45.7103057 Z M131.768793,32.3379438 C133.778352,30.2283704 136.339844,29.1745098 139.455123,29.1745098 C142.566698,29.1745098 145.12819,30.2283704 147.139601,32.3379438 C149.149159,34.4456651 150.153012,37.0849471 150.153012,40.2557897 C150.153012,43.4266322 149.149159,46.0659142 147.139601,48.1736355 C145.12819,50.2832089 142.566698,51.3370695 139.455123,51.3370695 C136.339844,51.3370695 133.778352,50.2832089 131.768793,48.1736355 C129.759235,46.0659142 128.753529,43.4266322 128.753529,40.2557897 C128.753529,37.0849471 129.759235,34.4456651 131.768793,32.3379438 L131.768793,32.3379438 Z" id="Fill-39" fill="#515151"></path>
                        <path d="M162.001073,47.7717238 C163.840236,47.7717238 165.405284,47.0901408 166.692513,45.7325312 C167.979741,44.3749216 168.624282,42.5468716 168.624282,40.2557897 C168.624282,37.9628556 167.979741,36.1366577 166.692513,34.7790481 C165.405284,33.4195864 163.840236,32.7398555 162.001073,32.7398555 C160.18784,32.7398555 158.630201,33.4269949 157.330007,34.7994215 C156.027961,36.1737003 155.376013,37.9906375 155.376013,40.2557897 C155.376013,42.5209418 156.027961,44.3378791 157.330007,45.7103057 C158.630201,47.0845844 160.18784,47.7717238 162.001073,47.7717238 Z M161.704733,60.5088058 C159.239551,60.5088058 157.229992,59.8938994 155.674205,58.6622345 C154.116566,57.4287175 152.997881,56.0211004 152.320002,54.4356792 L155.8872,52.9521249 C156.283555,54.0819228 157.011441,55.0320643 158.074563,55.7951409 C159.13398,56.5600696 160.343419,56.9416079 161.704733,56.9416079 C163.855053,56.9416079 165.546046,56.2970675 166.777711,55.0098387 C168.009375,53.72261 168.624282,51.9742015 168.624282,49.7664653 L168.624282,47.7717238 L168.453886,47.7717238 C167.774155,48.7885419 166.811049,49.6386685 165.566419,50.3183993 C164.321789,50.9981302 162.919729,51.3370695 161.363941,51.3370695 C158.674652,51.3370695 156.353936,50.2758004 154.399941,48.1532621 C152.445947,46.0288716 151.469875,43.3969982 151.469875,40.2557897 C151.469875,37.1145811 152.445947,34.4808556 154.399941,32.3564651 C156.353936,30.2357789 158.674652,29.1745098 161.363941,29.1745098 C162.919729,29.1745098 164.321789,29.5134491 165.566419,30.1913279 C166.811049,30.8729108 167.774155,31.7211853 168.453886,32.7398555 L168.624282,32.7398555 L168.624282,29.8523885 L172.360023,29.8523885 L172.360023,49.5960695 C172.360023,53.1632674 171.326536,55.8729302 169.261414,57.7287622 C167.194439,59.5808898 164.675546,60.5088058 161.704733,60.5088058 L161.704733,60.5088058 Z" id="Fill-40" fill="#515151"></path>
                        <polygon id="Fill-41" fill="#515151" points="176.055018 50.6573387 179.959303 50.6573387 179.959303 20.256515 176.055018 20.256515"></polygon>
                        <path d="M198.471319,37.7498609 C198.386121,36.5607949 197.839744,35.4309971 196.835891,34.3530587 C195.830185,33.2769726 194.33737,32.7398555 192.355594,32.7398555 C190.912786,32.7398555 189.660748,33.1936268 188.599479,34.0993173 C187.53821,35.0050077 186.808471,36.2218556 186.412116,37.7498609 L198.471319,37.7498609 Z M192.866781,51.3370695 C189.72372,51.3370695 187.169636,50.2906174 185.202677,48.1940089 C183.235717,46.1011046 182.250385,43.4544142 182.250385,40.2557897 C182.250385,37.2257088 183.206083,34.6234694 185.117479,32.441663 C187.027022,30.2635608 189.469979,29.1745098 192.440792,29.1745098 C195.526436,29.1745098 197.995323,30.1802151 199.849302,32.1897736 C201.703282,34.1993322 202.631198,36.8886215 202.631198,40.2557897 L202.590451,40.9781195 L186.158375,40.9781195 C186.269502,43.0728759 186.971459,44.728678 188.258687,45.9436738 C189.547768,47.1623738 191.053548,47.7717238 192.781583,47.7717238 C195.583852,47.7717238 197.480431,46.5808057 198.471319,44.2045259 L201.951467,45.6473333 C201.273588,47.2605365 200.153051,48.6144419 198.597264,49.7034929 C197.041477,50.7906919 195.130081,51.3370695 192.866781,51.3370695 L192.866781,51.3370695 Z" id="Fill-42" fill="#515151"></path>
                        <path d="M218.002006,34.6086524 L224.540016,34.6086524 C226.181001,34.6086524 227.497864,34.0548662 228.488753,32.9528502 C229.479641,31.8489821 229.976011,30.6321342 229.976011,29.3004544 C229.976011,27.9706268 229.479641,26.7537789 228.488753,25.6499108 C227.497864,24.5460427 226.181001,23.9941087 224.540016,23.9941087 L218.002006,23.9941087 L218.002006,34.6086524 Z M218.002006,50.6573387 L214.095868,50.6573387 L214.095868,20.256515 L224.454818,20.256515 C227.031128,20.256515 229.259238,21.1140501 231.142852,22.8254161 C233.024613,24.5404863 233.965494,26.6982151 233.965494,29.3004544 C233.965494,31.904546 233.024613,34.0641268 231.142852,35.7754928 C229.259238,37.4887109 227.031128,38.3443939 224.454818,38.3443939 L218.002006,38.3443939 L218.002006,50.6573387 L218.002006,50.6573387 Z" id="Fill-43" fill="#515151"></path>
                        <polygon id="Fill-44" fill="#515151" points="236.514022 50.6573387 240.420159 50.6573387 240.420159 20.256515 236.514022 20.256515"></polygon>
                        <path d="M251.118049,47.7717238 C252.731252,47.7717238 254.196285,47.1679301 255.513148,45.9658993 C256.83001,44.7638684 257.485663,43.3414344 257.485663,41.6985971 C256.383648,40.7929067 254.727845,40.3409875 252.520109,40.3409875 C250.621678,40.3409875 249.193688,40.7521599 248.230581,41.5708003 C247.269327,42.393145 246.787774,43.3543993 246.787774,44.4601195 C246.787774,45.4769376 247.224876,46.2844652 248.104637,46.8789982 C248.980693,47.4716791 249.986399,47.7717238 251.118049,47.7717238 Z M250.480917,51.3370695 C248.27318,51.3370695 246.426609,50.6999376 244.941203,49.4256738 C243.453944,48.1532621 242.711241,46.469678 242.711241,44.3749216 C242.711241,42.1097695 243.587297,40.333579 245.344967,39.0463503 C247.098931,37.7572694 249.264069,37.1145811 251.840378,37.1145811 C254.133312,37.1145811 256.015074,37.5368662 257.485663,38.3869928 L257.485663,37.7924598 C257.485663,36.2644545 256.963363,35.0401981 255.916911,34.1215428 C254.868607,33.1991832 253.581378,32.7398555 252.053373,32.7398555 C250.919871,32.7398555 249.893792,33.0102662 248.975137,33.5473832 C248.054629,34.0845002 247.424906,34.8197949 247.084114,35.7532673 L243.516917,34.2252619 C243.99847,32.9806321 244.946759,31.8267566 246.361785,30.7654874 C247.77681,29.7042183 249.645607,29.1745098 251.968175,29.1745098 C254.62783,29.1745098 256.835567,29.9542555 258.591384,31.5081906 C260.345349,33.06583 261.223257,35.2606013 261.223257,38.0906524 L261.223257,50.6573387 L257.485663,50.6573387 L257.485663,47.7717238 L257.318972,47.7717238 C255.761333,50.1480036 253.481363,51.3370695 250.480917,51.3370695 L250.480917,51.3370695 Z" id="Fill-45" fill="#515151"></path>
                        <polyline id="Fill-46" fill="#515151" points="269.717115 59.8272228 265.683181 59.8272228 270.52279 49.3404759 261.947439 29.8523885 266.192516 29.8523885 272.391587 44.7990588 272.476785 44.7990588 278.50546 29.8523885 282.750537 29.8523885 269.717115 59.8272228"></polyline>
                        <path d="M0.82707063,34.9420354 C0.82707063,25.2313299 0.830774886,15.5206245 0.821514247,5.81177124 C0.821514247,4.61900102 1.05303021,3.53180207 1.89760043,2.63166802 C2.22542703,2.28161589 2.46064724,2.18715738 2.86441108,2.59832972 C9.39686539,9.26413723 15.9459889,15.9169799 22.4951123,22.5698225 C26.7346326,26.8778714 30.9723007,31.1877725 35.2303422,35.4791524 C35.6433667,35.8958811 35.6804093,36.1144322 35.2433071,36.5496822 C24.8287932,46.9030759 14.4235399,57.2675824 4.04792066,67.6580186 C3.41264087,68.2932984 2.96813022,68.2266218 2.36063235,67.7580335 C1.24750361,66.9023505 0.821514247,65.7577356 0.823366375,64.3927175 C0.825218503,58.6418611 0.814105736,52.8910047 0.810401481,47.1401482 C0.808549353,43.0728759 0.810401481,39.0074556 0.810401481,34.9420354 L0.82707063,34.9420354" id="Fill-47" fill="#4D4E4C"></path>
                        <path d="M4.5591079,1.52224354 C5.35367067,1.51668716 5.91301323,1.74635099 6.45383451,2.0482478 C19.7521112,9.50120958 33.0485358,16.9560235 46.3560732,24.3923161 C46.9672753,24.7331076 46.9543104,24.9238767 46.4820179,25.3887608 C43.5075008,28.3151225 40.5570614,31.2655619 37.6084742,34.2178534 C37.2899082,34.5364194 37.0972869,34.71978 36.6694454,34.28453 C26.0900921,23.4940342 15.4940697,12.7202075 4.90175152,1.94267653 C4.81284939,1.85192227 4.73876428,1.74635099 4.5591079,1.52224354" id="Fill-48" fill="#4D4E4C"></path>
                        <path d="M7.53547708,67.4116857 C17.1887665,57.6546771 26.8476124,47.905077 36.4786763,38.1258428 C37.0750614,37.5183449 37.3547327,37.5998386 37.8899976,38.157329 C40.3366582,40.7040046 42.8185093,43.2173418 45.3114732,45.7177142 C45.7504274,46.1585206 45.78747,46.3381769 45.192937,46.6641514 C32.8003507,53.446643 20.4188772,60.2513601 8.03555155,67.0468165 C7.83181751,67.1597963 7.64104835,67.3431569 7.53547708,67.4116857" id="Fill-49" fill="#4D4E4C"></path>
                        <path d="M62.6788744,35.212446 C62.6381276,36.3052013 62.121384,37.0738343 61.3397861,37.649846 C60.7619223,38.0776875 60.1247903,38.4277396 59.4932148,38.7759396 C55.7463605,40.8484705 51.9902456,42.8987759 48.2507998,44.9842716 C47.7470211,45.265795 47.4469764,45.2546823 47.0302477,44.8212844 C44.3687402,42.0727269 41.6831551,39.346395 38.9827529,36.63488 C38.5901018,36.2403769 38.5789891,36.0236779 38.9827529,35.6273226 C42.1276657,32.528713 45.2559093,29.4134342 48.3711881,26.2833385 C48.7379094,25.9129129 49.0009115,25.8721661 49.458387,26.131464 C53.1589381,28.2280725 56.8780105,30.2968991 60.5878223,32.3768385 C61.7361414,33.0195268 62.628867,33.8529843 62.6788744,35.212446" id="Fill-50" fill="#4D4E4C"></path>
                    </g>
                </g>
            </g>
        </g>
    </g>
</svg>